<?xml version="1.0" encoding="utf-8"?>
<!-- Generator: Adobe Illustrator 15.0.0, SVG Export Plug-In . SVG Version: 6.00 Build 0)  -->
<!DOCTYPE svg PUBLIC "-//W3C//DTD SVG 1.1//EN" "http://www.w3.org/Graphics/SVG/1.1/DTD/svg11.dtd">
<svg version="1.1" id="Layer_1" xmlns="http://www.w3.org/2000/svg" xmlns:xlink="http://www.w3.org/1999/xlink" x="0px" y="0px"
	 width="33.304px" height="29.375px" viewBox="0 0 33.304 29.375" enable-background="new 0 0 33.304 29.375" xml:space="preserve">
<g>
	<path d="M23.638,10.042c-5.33,0-9.666,4.336-9.666,9.667s4.336,9.666,9.666,9.666s9.666-4.336,9.666-9.666
		S28.968,10.042,23.638,10.042z M23.638,28.375c-4.778,0-8.666-3.887-8.666-8.666s3.888-8.667,8.666-8.667s8.666,3.888,8.666,8.667
		S28.416,28.375,23.638,28.375z"/>
	<path d="M6.772,5.456c0.502,0,0.909-0.406,0.909-0.909V0.909C7.682,0.407,7.274,0,6.772,0c-0.503,0-0.91,0.407-0.91,0.909v3.637
		C5.862,5.05,6.27,5.456,6.772,5.456z"/>
	<path d="M17.583,5.644c0.503,0,0.91-0.406,0.91-0.909V1.098c0-0.503-0.407-0.91-0.91-0.91c-0.502,0-0.909,0.407-0.909,0.91v3.637
		C16.674,5.238,17.081,5.644,17.583,5.644z"/>
	<path d="M11.092,23.397v0.003H2.127c-0.084,0-0.154-0.087-0.154-0.184V6.902h20.593V7.98h-0.003V9.6
		c0.354-0.037,0.712-0.058,1.075-0.058c0.136,0,0.268,0.015,0.401,0.021V5.012c0-1.123-0.896-2.033-2.003-2.033h-2.539v1.178
		c0,1.018-0.829,1.849-1.849,1.849c-1.021,0-1.85-0.831-1.85-1.849V2.979H8.606v1.146c0,1.018-0.829,1.848-1.848,1.848
		c-1.023,0-1.851-0.831-1.851-1.848V2.979H2.004C0.896,2.979,0,3.889,0,5.388v17.829c0,0.743,0.896,1.657,2.004,1.657h10.94v-0.003
		h1.951c-0.278-0.469-0.52-0.96-0.721-1.474H11.092z"/>
	<rect x="2.805" y="13.875" width="3.342" height="3.343"/>
	<rect x="7.817" y="8.862" width="3.343" height="3.342"/>
	<rect x="7.817" y="13.875" width="3.343" height="3.343"/>
	<rect x="12.83" y="8.862" width="3.342" height="3.342"/>
	<rect x="2.805" y="18.9" width="3.342" height="3.342"/>
	<rect x="7.817" y="18.9" width="3.343" height="3.342"/>
	<path d="M12.83,17.229h0.96c0.307-1.215,0.826-2.344,1.525-3.342H12.83V17.229z"/>
	<path d="M17.851,8.862v2.499c0.998-0.694,2.128-1.208,3.342-1.509V8.862H17.851z"/>
	<path d="M23.738,19.42l-0.392-7.628l-0.389,7.569l-0.903-0.069c-0.024-0.001-0.052-0.002-0.076,0
		c-0.276,0.021-0.483,0.262-0.462,0.538c0.021,0.276,0.262,0.483,0.538,0.462l0.859-0.066l-0.067,1.316
		c-0.001,0.017-0.001,0.034,0,0.051c0.014,0.276,0.25,0.488,0.525,0.475c0.276-0.015,0.488-0.25,0.475-0.526l-0.071-1.381
		l4.821-0.369L23.738,19.42z"/>
</g>
</svg>
