<?xml version="1.0" encoding="utf-8"?>
<!-- Generator: Adobe Illustrator 15.0.0, SVG Export Plug-In . SVG Version: 6.00 Build 0)  -->
<!DOCTYPE svg PUBLIC "-//W3C//DTD SVG 1.1//EN" "http://www.w3.org/Graphics/SVG/1.1/DTD/svg11.dtd">
<svg version="1.1" id="Layer_1" xmlns="http://www.w3.org/2000/svg" xmlns:xlink="http://www.w3.org/1999/xlink" x="0px" y="0px"
	 width="24.5px" height="22.346px" viewBox="0 0 24.5 22.346" enable-background="new 0 0 24.5 22.346" xml:space="preserve">
<g>
	<path fill="#FFFFFF" d="M21.585,0H2.915C1.308,0,0,1.308,0,2.915v16.516c0,1.607,1.308,2.915,2.915,2.915h18.67
		c1.607,0,2.915-1.308,2.915-2.915V2.915C24.5,1.308,23.192,0,21.585,0z M22.5,19.431c0,0.504-0.41,0.915-0.915,0.915H2.915
		C2.41,20.346,2,19.935,2,19.431V2.915C2,2.411,2.41,2,2.915,2h18.67C22.09,2,22.5,2.411,22.5,2.915V19.431z"/>
	<rect x="4" y="4.464" fill="#FFFFFF" width="7.084" height="7.083"/>
	<rect x="12.666" y="4.381" fill="#FFFFFF" width="7.667" height="2.25"/>
	<rect x="12.666" y="9.131" fill="#FFFFFF" width="7.667" height="2.25"/>
	<rect x="4.354" y="14.381" fill="#FFFFFF" width="15.979" height="2.25"/>
</g>
</svg>
